# xmcd
#
# Track frame offsets:
#	150
#	15892
#	32677
#	46951
#	70964
#	91058
#	118243
#	132579
#	154342
#	178857
#	196806
#	216616
#	231204
#	254068
#	269755
#	290746
#
# Disc length: 4108 seconds
#
# Revision: 0
# Processed by: cddbd v1.5.2PL0 Copyright (c) Steve Scherf et al.
# Submitted via: dBpowerAMP V4.0
#
DISCID=fb100a10
DTITLE=Various Artist - Worship Anthems 2009 [CD1 of 2)
DYEAR=2009
DGENRE=Christian
TTITLE0=Martyn Layzell - Happy Day
TTITLE1=Mark Tedder - Praise Is Rising (Hosanna)
TTITLE2=29th Chapter - One Way
TTITLE3=Trent - Perfect Sacrifice
TTITLE4=Lou Fellingham - Amazing God
TTITLE5=Ben Cantelon - How I Love You
TTITLE6=Stuart Townend - See What A Morning
TTITLE7=Noel Robinson - Lord I Lift Your Name On High
TTITLE8=Sue Rinaldi - Mighty To Save
TTITLE9=Kristyn Getty - There Is A Higher Throne
TTITLE10=Howard Williams - God In My Living (Everything)
TTITLE11=Eoghan Heaslip - Jesus You Are Worthy
TTITLE12=Billy Donoghue - Rivers Of Worship
TTITLE13=Mark Tedder - Everlasting God
TTITLE14=Geraldine Latty - I Will Say
TTITLE15=Nick Herbert - Adoration
EXTD=
EXTT0=
EXTT1=
EXTT2=
EXTT3=
EXTT4=
EXTT5=
EXTT6=
EXTT7=
EXTT8=
EXTT9=
EXTT10=
EXTT11=
EXTT12=
EXTT13=
EXTT14=
EXTT15=
PLAYORDER=
